<?xml version="1.0" standalone="no"?>
<!DOCTYPE svg PUBLIC "-//W3C//DTD SVG 20010904//EN"
 "http://www.w3.org/TR/2001/REC-SVG-20010904/DTD/svg10.dtd">
<svg version="1.0" xmlns="http://www.w3.org/2000/svg"
 width="100.000000pt" height="100.000000pt" viewBox="0 0 100.000000 100.000000"
 preserveAspectRatio="xMidYMid meet">

<g transform="translate(0.000000,100.000000) scale(0.100000,-0.100000)" fill="currentColor">
<path d="M548 851 c-68 -22 -112 -76 -88 -106 19 -23 27 -19 79 35 60 61 93
66 140 19 43 -43 45 -88 5 -156 -18 -32 -38 -48 -81 -68 -101 -47 -128 -86
-39 -55 145 49 218 158 176 259 -23 57 -123 94 -192 72z"/>
<path d="M255 688 c12 -38 47 -68 122 -104 40 -20 80 -45 88 -57 18 -25 22
-229 5 -272 -7 -19 -27 -34 -70 -52 -33 -15 -60 -30 -60 -35 0 -4 65 -8 145
-8 80 0 145 4 145 8 0 5 -27 20 -60 35 -43 18 -63 33 -70 52 -11 28 -14 226
-4 262 4 15 31 37 78 63 81 44 101 63 111 103 l7 27 -222 0 -221 0 6 -22z m75
-14 c8 -14 36 -39 62 -56 26 -17 48 -33 48 -34 0 -5 -57 14 -87 30 -28 14 -73
64 -73 80 0 17 39 2 50 -20z m90 -489 c-33 -19 -50 -18 -26 0 11 8 27 15 35
15 10 -1 7 -6 -9 -15z"/>
<path d="M386 500 c-32 -10 -72 -31 -88 -47 -24 -23 -28 -34 -26 -67 2 -33 9
-45 37 -63 19 -13 52 -28 75 -34 23 -5 49 -12 59 -15 9 -3 17 -1 17 4 0 5 -19
14 -42 21 -56 17 -102 63 -93 93 11 37 56 78 97 89 22 5 38 16 38 24 0 18 -1
18 -74 -5z"/>
<path d="M510 435 c0 -9 9 -15 25 -15 36 0 82 -26 90 -51 10 -29 -29 -68 -77
-75 -21 -4 -38 -11 -38 -16 0 -12 59 -2 111 19 73 29 71 116 -2 142 -48 17
-109 14 -109 -4z"/>
<path d="M421 413 c-12 -14 -19 -29 -15 -32 3 -3 10 2 15 12 6 9 17 17 24 17
8 0 15 7 15 15 0 23 -16 18 -39 -12z"/>
</g>
</svg>
